# xmcd
#
# Track frame offsets:
# 150
# 9852
# 28470
# 42712
# 54785
# 67615
# 92522
# 105730
# 124215
# 136090
# 152915
# 165615
# 176702
# 196955
#
# Disc length: 2829 seconds
#
#
# Revision: 0
# Processed by: cddbd v1.5.1PL0 Copyright (c) Steve Scherf et al.
# Submitted via: FreeRIP 2.941 
#
DISCID=b20b0b0e
DTITLE=Various Artist - Country Gospel Hits 2
DYEAR=1900
DGENRE=Gospel
TTITLE0=The Kellys - I'm Going Home
TTITLE1=Buddy Hyatt - Where Would I Be?
TTITLE2=The Cumberland Boys - There Is Power In The Blood
TTITLE3=John Brack - I Walk A Mile With Jesus
TTITLE4=Rebecca Holden - I'm On The Gloryland Way
TTITLE5=Steadfast - Blessed Assurance
TTITLE6=Frank Tender - Spread Your Love
TTITLE7=David Wills - Neon Cross
TTITLE8=Tucson Messengers - Oh What A Day
TTITLE9=Jennifer Weatherly - When I Sing For Him
TTITLE10=Curtis Young - Closer To Jesus
TTITLE11=The Kellys - Moses
TTITLE12=Rebecca Holden - One Day At A Time
TTITLE13=The Cumberland Boys - Walking In Jerusalem
EXTD=
EXTT0=
EXTT1=
EXTT2=
EXTT3=
EXTT4=
EXTT5=
EXTT6=
EXTT7=
EXTT8=
EXTT9=
EXTT10=
EXTT11=
EXTT12=
EXTT13=
PLAYORDER=
